<svg width="164" height="200" viewBox="0 0 164 200" fill="none" xmlns="http://www.w3.org/2000/svg">
<path d="M12.9071 105.364C21.5637 106.379 32.1121 106.796 37.9252 105.254C39.2113 104.987 39.8209 103.264 39.3017 101.471C38.9595 100.287 32.8397 99.229 32.9302 99.4807C30.1299 100.641 16.2541 97.5023 9.69775 99.4807" fill="#C6756F"/>
<path d="M38.4679 98.8985C36.4228 93.0737 32.7808 84.956 32.592 82.6945L29.7681 83.4182C29.9411 83.371 32.3049 97.7227 32.9342 99.4807C33.3825 101.581 33.5477 103.3 34.6175 104.271C36.7453 106.202 40.2378 105.762 39.3096 101.475C39.0854 100.696 38.7983 99.8267 38.4758 98.9025" fill="#C6756F"/>
<path d="M3.77068 194.491L4.05387 189.874C4.05387 189.874 8.89543 188.934 8.59258 189.575C8.27794 190.243 8.28973 193.834 8.28973 193.834C8.10881 198.55 2.08341 197.15 3.77068 194.495V194.491Z" fill="#D48077"/>
<path d="M21.6972 199.828C21.6972 199.828 3.35743 200.178 2.97986 199.879C2.60229 199.58 2.89728 193.209 2.89728 193.209C2.89728 193.209 4.26203 194.448 4.99357 194.353C5.72512 194.259 7.08201 193.512 8.14 191.628C9.19799 189.748 8.96989 191.931 8.96989 191.931C8.96989 191.931 12.4388 195.105 13.4103 195.301C14.4486 195.51 20.4465 197.051 21.2567 198.766C21.6461 199.321 21.7404 199.797 21.6972 199.828Z" fill="#F5F5F5"/>
<path d="M21.0208 198.42C21.3473 198.542 21.8232 199.757 21.6973 199.828C21.6973 199.828 3.35758 200.178 2.98001 199.879C2.85808 199.781 2.80697 199.053 2.79517 198.102" fill="#ABABAB"/>
<path d="M23.4042 192.839L23.6638 188.607C23.6638 188.607 28.0963 187.746 27.821 188.336C27.5339 188.949 27.5457 192.233 27.5457 192.233C27.3727 196.552 21.8625 195.266 23.4042 192.835V192.839Z" fill="#D48077"/>
<path d="M41.0716 198.337C41.0716 198.337 23.0544 198.68 22.6847 198.389C22.315 198.098 22.6021 191.836 22.6021 191.836C22.6021 191.836 23.9433 193.055 24.6591 192.961C25.3749 192.867 26.7121 192.135 27.7504 190.283C28.7888 188.434 28.5646 190.582 28.5646 190.582C28.5646 190.582 31.9706 193.7 32.9263 193.897C33.945 194.109 39.8366 195.612 40.635 197.299C41.0244 197.842 41.1149 198.306 41.0716 198.337Z" fill="#F5F5F5"/>
<path d="M40.4105 196.953C40.7252 197.071 41.1971 198.263 41.0713 198.337C41.0713 198.337 23.0541 198.68 22.6843 198.389C22.5624 198.294 22.5152 197.574 22.5034 196.646" fill="#ABABAB"/>
<path d="M4.67533 136.089C3.95951 136.034 8.40777 156.026 8.26225 163.278C9.05672 168.36 1.82781 188.194 3.00772 190.405C2.85827 191.396 7.15316 190.959 8.92302 190.369C11.3064 184.399 16.1991 166.72 16.793 165.339C18.9955 160.25 17.501 151.066 18.2876 147.389C21.4773 152.053 23.2786 155.79 24.7338 160.301C27.9707 170.319 21.9689 187.592 22.8735 189.52C23.314 190.464 23.7506 190.09 27.4043 190.22C29.9962 179.109 35.0384 166.563 34.3815 159.456C32.5802 151.53 29.8035 146.197 24.0023 135.625L4.67533 136.089Z" fill="#000040"/>
<path d="M6.86195 97.8602C6.86195 97.8602 -1.3974 99.4531 2.38225 112.503C3.87287 122.151 4.67125 136.089 4.67125 136.089C4.67125 136.089 27.5301 139.192 24.0533 134.618C21.7446 129.549 21.8272 107.52 21.835 107.437C21.8626 107.221 22.6806 107.536 22.7318 107.433C22.539 106.179 22.4407 101.695 23.5302 97.758C20.958 97.5023 20.6866 97.3332 18.3779 97.0303C11.4125 96.1139 20.3641 101.825 6.86195 97.8642V97.8602Z" fill="#F5F5F5"/>
<path d="M7.85319 86.1594L6.86206 97.8326C6.86206 97.8326 14.0399 102.643 16.148 98.2378C14.7871 94.6312 14.8265 88.7631 17.4144 87.1977" fill="#D48077"/>
<path d="M16.5648 82.1949C22.6296 91.0914 17.6464 84.4919 18.8302 88.3659C19.5421 90.6903 19.1882 91.705 18.3701 92.1809C14.1932 93.4946 7.37726 90.5605 4.41568 85.015C0.604572 78.5491 8.0144 75.0958 13.5049 77.9551C14.9837 78.726 15.6052 80.7869 16.5648 82.1949Z" fill="#D48077"/>
<path d="M8.30534 82.6905C7.99463 83.7406 10.1893 86.3365 10.3387 86.9815C10.1814 87.0051 9.11553 86.5292 8.68683 86.7809C8.1716 87.0877 6.72819 88.5743 10.1499 89.5812C10.4724 89.534 9.15094 90.655 9.13914 92.004C9.13127 93.357 5.78819 93.5693 5.84719 92.8692C6.1107 89.9706 -2.83695 86.1162 2.77155 81.0347C4.69481 73.499 8.22668 76.083 11.6248 75.3121C14.7123 74.612 15.8646 74.7222 14.9443 75.3791C13.8863 76.1303 14.2442 76.1814 14.7909 76.264C16.4585 76.5118 14.0082 78.2934 14.0082 78.2934C14.0082 78.2934 12.2934 78.4193 11.8765 79.7015C11.3102 81.4084 8.7891 81.3926 8.30534 82.6984V82.6905Z" fill="#363636"/>
<path d="M128.554 1.82744C128.176 1.16669 108.043 14.4957 106.383 18.1456C102.666 21.8466 107.555 66.6242 125.789 65.7511C141.309 64.0205 144.99 63.0687 149.721 61.7079" fill="#B8142D"/>
<path d="M16.9265 79.1311C16.9265 79.1311 17.8114 78.8754 17.8665 79.0524C17.9137 79.2294 25.41 87.3039 18.4604 88.535C18.1103 88.8418 13.3631 86.0808 13.666 84.1221C13.9334 82.3837 13.6817 79.8705 16.9304 79.1311H16.9265Z" fill="#5D0A25"/>
<path d="M19.3808 88.3069C19.3808 88.3069 18.9482 88.598 18.197 88.6727C14.7398 89.4357 12.5845 85.2156 13.2296 82.6119C13.7526 80.4999 14.4488 80.2757 15.8057 79.4773C15.3691 80.0515 14.7084 80.6257 14.5353 82.5293C14.1774 85.8763 17.4969 88.7514 19.3769 88.3069H19.3808Z" fill="#B8142D"/>
<path d="M16.549 79.08C14.083 81.0976 15.7152 87.6658 20.1713 88.3068C30.7433 86.9381 53.9797 83.8311 53.9797 83.8311C55.0849 83.717 44.5168 69.4479 43.097 57.0195C28.997 67.6309 16.549 79.076 16.549 79.076V79.08Z" fill="#B8142D"/>
<path d="M36.1275 60.115C35.9977 60.7285 31.5061 62.2624 33.3979 72.331C35.7774 85.0072 42.8451 87.0052 47.1281 86.3051C51.4073 85.605 81.1489 82.7731 81.1489 82.7731C81.1489 82.7731 67.6704 73.5738 64.5397 60.4768C61.4129 47.3837 62.3018 41.6454 63.58 37.2994C55.4623 42.0702 36.1275 60.115 36.1275 60.115Z" fill="#5D0A25"/>
<path d="M63.2537 34.5974C55.2027 43.9659 66.1405 85.1448 85.5422 83.5716C102.517 81.664 109.785 78.498 109.785 78.498L85.3259 16.5369C85.0466 16.1515 67.4109 28.6231 63.2576 34.5935L63.2537 34.5974Z" fill="#B8142D"/>
<path d="M151.507 61.2162C162.213 57.2045 166.213 40.4458 160.431 23.7815C154.654 7.11723 141.289 -3.14013 130.579 0.867635C119.87 4.87933 115.874 21.6381 121.655 38.3023C127.433 54.9666 140.797 65.224 151.507 61.2162Z" fill="#5D0A25"/>
<path d="M111.433 78.3917C122.639 74.0064 126.277 56.4179 119.563 39.1047C112.845 21.7915 98.3168 11.3099 87.1115 15.6953C75.9063 20.0806 72.2643 37.6691 78.982 54.9823C85.6996 72.2955 100.228 82.777 111.433 78.3917Z" fill="#5D0A25"/>
<path d="M150.811 53.8339C158.366 51.2027 160.746 38.5737 156.124 25.6223C151.503 12.6708 141.627 4.30521 134.072 6.93641C126.517 9.56761 124.137 22.1966 128.758 35.1481C133.38 48.0995 143.256 56.4651 150.811 53.8339Z" fill="#F7D5D9"/>
<path d="M110.592 71.1234C118.017 68.2523 119.626 54.6952 114.186 40.843C108.743 26.9869 98.3127 18.0825 90.8871 20.9536C83.4616 23.8247 81.849 37.3819 87.2923 51.2341C92.7357 65.0901 103.166 73.9946 110.592 71.1234Z" fill="#F7D5D9"/>
<path opacity="0.22" d="M147.973 15.7357C147.973 15.7357 141.691 14.9386 146.459 21.2533C146.459 21.2533 152.843 29.2418 151.687 36.6045C150.531 43.9672 151.212 48.6239 154.888 46.4082C158.564 44.1925 158.054 33.7149 155.19 25.4419C152.326 17.1688 147.973 15.7357 147.973 15.7357Z" fill="#F07286"/>
<path opacity="0.22" d="M106.623 41.943C104.468 38.3975 100.182 29.0451 106.836 34.2448C116.799 41.0445 116.009 57.2071 114.996 60.9767C113.938 64.9107 110.139 66.1888 109.289 55.3238C108.43 44.3669 106.623 41.943 106.623 41.943Z" fill="#F07286"/>
<path d="M5.82764 109.298C13.8982 111.099 21.1468 113.286 27.07 112.802C27.5537 112.763 29.4613 112.031 29.7916 110.686C29.9686 109.966 30.0905 108.106 29.3905 107.433C28.5213 106.599 26.5351 107.024 24.5056 106.635C21.7525 106.147 13.8078 102.356 6.86596 101.573" fill="#D48077"/>
<path d="M2.58679 107.642C3.48352 109.585 11.8216 111.5 11.8216 111.5C12.8442 108.782 13.4263 107.437 14.2325 102.426C14.4174 102.187 7.62109 99.1974 5.33206 99.7008C3.23969 99.8503 1.02144 104.951 2.58679 107.638V107.642Z" fill="#F5F5F5"/>
<path d="M26.1141 111.355C28.2851 111.905 29.524 110.855 29.9252 109.498C30.173 103.319 27.8722 93.1603 27.6441 89.8054H24.7533C25.005 89.7936 24.4622 104.543 24.5055 106.639C24.5055 107.956 24.2892 110.831 26.1141 111.355Z" fill="#D48077"/>
<path d="M23.9314 85.837C23.4752 85.8134 23.723 83.1586 23.0898 84.252C22.9678 85.4397 22.7554 86.2775 23.8449 87.7485C24.7574 88.9834 24.7652 89.6481 24.7888 90.2853C24.7888 90.2853 27.6757 91.123 27.6442 89.8054C27.5852 86.9815 28.7533 85.4595 28.2538 84.0278C27.9156 83.0446 28.537 80.1695 28.2538 80.1695C27.7111 80.1695 27.0857 84.2402 27.0857 84.2402C27.0857 84.2402 27.7032 79.5048 27.5262 79.4458C26.9402 79.2373 26.2559 83.8312 26.1221 83.7997C25.9648 83.7643 26.6492 79.3435 26.6492 79.3435C25.9805 78.5255 25.2529 83.4418 25.0445 83.4811C24.6669 83.548 25.8822 79.6425 25.4968 79.5835C25.1349 79.5284 23.4988 82.5568 23.9393 85.837H23.9314Z" fill="#D48077"/>
</svg>
